<?xml version="1.0" encoding="utf-8"?>
<!-- Generator: Adobe Illustrator 27.2.0, SVG Export Plug-In . SVG Version: 6.00 Build 0)  -->
<svg version="1.1" xmlns="http://www.w3.org/2000/svg" xmlns:xlink="http://www.w3.org/1999/xlink" x="0px" y="0px"
	 viewBox="0 0 314.34 153.49" style="enable-background:new 0 0 314.34 153.49;" xml:space="preserve">
<style type="text/css">
	.st0{fill:url(#SVGID_1_);}
	.st1{fill:url(#SVGID_00000109740775903058242570000005150858469545769106_);}
	.st2{fill:url(#SVGID_00000173131052877724865750000003883784870365401773_);}
	.st3{fill:url(#SVGID_00000181081147537897326840000006756823622218651022_);}
	.st4{fill:url(#SVGID_00000057119842883385224610000002631725407185747591_);}
	.st5{fill:url(#SVGID_00000034799625763709513410000004543773205859405711_);}
	.st6{fill:url(#SVGID_00000148635803496252941610000012332948296384848061_);}
	.st7{fill:url(#SVGID_00000141425120169219464560000016255398399503945645_);}
	.st8{fill:url(#SVGID_00000004515412262748531980000011309275689803988129_);}
	.st9{fill:#FF8343;}
</style>
<g id="BACKGROUND">
</g>
<g id="OBJECTS">
</g>
<g id="TEXTS">
	<g>
		<g>
			<g>
				<linearGradient id="SVGID_1_" gradientUnits="userSpaceOnUse" x1="135.7883" y1="125.7482" x2="171.5481" y2="13.1431">
					<stop  offset="8.722082e-03" style="stop-color:#FF8343"/>
					<stop  offset="1" style="stop-color:#FF8343"/>
				</linearGradient>
				<path class="st0" d="M250.89,52.72c6.55-0.68,14.79-1.59,18.47-2.15c6.59-0.99,10.18-3.12,7.89-6.24
					c-1.49-2.01-5.35-3.5-8.87-4.53c-1.94-0.56-3.77-0.99-5.04-1.3c-3.57-0.85-6.58-0.14-7.88,0.85c-1.29,1-3.65,8.26-5.08,9.11
					c-0.75,0.46-2.66,0.71-4.31,0.85c-2.08-4.09-11.38-21.76-21.19-31.08c-3.04-2.89-5.16-5.48-18.52-6.9
					c-18.39-1.96-49.34-1.97-49.34-1.97s-30.95,0.01-49.34,1.97c-13.36,1.43-15.48,4.01-18.52,6.9
					c-9.81,9.32-19.11,26.99-21.19,31.08c-1.64-0.14-3.55-0.4-4.31-0.85c-1.43-0.85-3.79-8.11-5.08-9.11
					c-1.3-0.99-4.31-1.7-7.88-0.85c-3.58,0.85-11.61,2.7-13.91,5.82c-2.29,3.12,1.3,5.25,7.89,6.24c4.14,0.62,14.04,1.69,20.84,2.41
					c-5.61,2.8-11.29,6.38-15.67,9.91c-4.39,3.54-7.5,7.06-7.95,9.76c-0.92,5.4,0,17.94,0,17.94s1.62-5.21,4.02-14.82
					c1.13-4.51,14.62-13.07,21.57-16.98c0,0,6.4,1.19,17,6.97c9.63,5.26,17.22,12.94,17.22,12.94s-2.88-7.31-11.63-13.6
					c-0.04-0.02-9.02-8-9.02-8s12.52-3.35,75.97-3.35c45.71,0,77.17,2.21,77.17,2.21s-10.12,9.07-10.23,9.14
					c-8.75,6.29-11.63,13.6-11.63,13.6s7.3-8.25,17.22-12.94c3.93-1.86,15.14-6.73,15.14-6.73c12.03,5.45,22.2,12.25,23.33,16.74
					c2.4,9.61,4.02,14.82,4.02,14.82s0.91-12.55,0-17.94c-0.88-5.16-11.43-13.33-22.17-18.93c-0.44-0.23-0.86-0.45-1.3-0.66
					l-0.06-0.08c0.74-0.08,1.52-0.16,2.34-0.25C250.86,52.73,250.88,52.73,250.89,52.72z M76.52,49.8c0,0,7.9-19.87,17.75-29.3
					c2.74-2.62,4.61-5,17.94-6.32c11.88-1.18,29.08-1.59,39.83-1.74v-0.09c0,0,1.88,0,4.97,0.03c3.08-0.03,4.97-0.03,4.97-0.03v0.09
					c10.75,0.15,27.95,0.56,39.83,1.74c13.33,1.32,15.2,3.69,17.94,6.32c9.85,9.43,17.75,29.3,17.75,29.3
					C214.42,48.04,99.62,48.04,76.52,49.8z"/>
				
					<linearGradient id="SVGID_00000001661012813786440830000009330082377813754514_" gradientUnits="userSpaceOnUse" x1="133.1134" y1="120.8585" x2="196.2671" y2="7.9643">
					<stop  offset="8.722082e-03" style="stop-color:#FF8343"/>
					<stop  offset="1" style="stop-color:#FF8343"/>
				</linearGradient>
				<path style="fill:url(#SVGID_00000001661012813786440830000009330082377813754514_);" d="M193.12,81.45
					c-3.79,4.13-4.6,8.51-10.58,10.27c-5.98,1.76-25.53,2.13-25.53,2.13s-19.55-0.37-25.53-2.13c-5.98-1.76-6.78-6.14-10.58-10.27
					c-3.07-3.35-4.7-3.88-4.7-3.88c1.3,1.78,4.92,8.63,7.28,14.09c1.28,2.96,7.86,4.01,11.18,4.62c5.98,1.1,22.35,1.1,22.35,1.1
					s16.37,0,22.35-1.1c3.31-0.61,9.9-1.66,11.18-4.62c2.36-5.46,5.98-12.31,7.28-14.09C197.82,77.57,196.2,78.11,193.12,81.45z"/>
				
					<linearGradient id="SVGID_00000152225318008241230290000010028932492362316678_" gradientUnits="userSpaceOnUse" x1="134.0897" y1="120.1506" x2="195.6297" y2="10.141">
					<stop  offset="8.722082e-03" style="stop-color:#FF8343"/>
					<stop  offset="1" style="stop-color:#FF8343"/>
				</linearGradient>
				<path style="fill:url(#SVGID_00000152225318008241230290000010028932492362316678_);" d="M156.09,87.01
					c5.81,0,20.91-0.49,23.04-2.21c2.13-1.72,3.62-2.85,5.32-3.99c0,0-5.59,2.22-8.78,2.87c-3.19,0.65-14.67,1.12-19.58,1.12
					s-16.39-0.46-19.58-1.12c-3.19-0.65-8.78-2.87-8.78-2.87c1.7,1.14,3.19,2.27,5.32,3.99C135.18,86.52,150.29,87.01,156.09,87.01z
					"/>
			</g>
			
				<linearGradient id="SVGID_00000020397935456873740260000015160311728537815682_" gradientUnits="userSpaceOnUse" x1="149.2627" y1="142.9395" x2="194.2991" y2="-8.4755">
				<stop  offset="8.722082e-03" style="stop-color:#FF8343"/>
				<stop  offset="1" style="stop-color:#FF8343"/>
			</linearGradient>
			<path style="fill:url(#SVGID_00000020397935456873740260000015160311728537815682_);" d="M157.02,115.11
				c49.43,0,96.4,0.63,138.8,1.76c-35.78-3.59-84.75-5.81-138.8-5.81S54,113.27,18.22,116.87
				C60.62,115.74,107.58,115.11,157.02,115.11z"/>
			<g>
				
					<linearGradient id="SVGID_00000165202476445431827020000000839788373044646052_" gradientUnits="userSpaceOnUse" x1="393.11" y1="71.7313" x2="394.3489" y2="83.2942" gradientTransform="matrix(-1 0 0 1 473.1307 0)">
					<stop  offset="4.262231e-08" style="stop-color:#4158A6"/>
					<stop  offset="1" style="stop-color:#FF8343"/>
				</linearGradient>
				<path style="fill:url(#SVGID_00000165202476445431827020000000839788373044646052_);" d="M60.75,71.1c0,0,17.01,5.13,22.19,7.84
					c9.57,4.99,16.54,15.84,16.54,15.84s-8.02-2.4-18.8-3.13c-6.01-0.41-18.4-1.09-21.56-6.09C54.64,78.46,59.8,71.61,60.75,71.1z"
					/>
				
					<linearGradient id="SVGID_00000014599915029485196750000018175115985811998909_" gradientUnits="userSpaceOnUse" x1="78.4027" y1="100.0787" x2="78.4027" y2="72.9586">
					<stop  offset="3.729453e-08" style="stop-color:#4158A6"/>
					<stop  offset="0.1667" style="stop-color:#445BA8;stop-opacity:0.8327"/>
					<stop  offset="0.3126" style="stop-color:#4F64AD;stop-opacity:0.6863"/>
					<stop  offset="0.4506" style="stop-color:#6174B5;stop-opacity:0.5478"/>
					<stop  offset="0.584" style="stop-color:#7A8AC1;stop-opacity:0.4139"/>
					<stop  offset="0.714" style="stop-color:#9BA7D0;stop-opacity:0.2835"/>
					<stop  offset="0.8414" style="stop-color:#C3CAE3;stop-opacity:0.1556"/>
					<stop  offset="0.9644" style="stop-color:#F2F3F9;stop-opacity:0.0321"/>
					<stop  offset="0.9964" style="stop-color:#FFFFFF;stop-opacity:0"/>
				</linearGradient>
				<path style="fill:url(#SVGID_00000014599915029485196750000018175115985811998909_);" d="M60.75,71.1c0,0,4.4,10.75,9.58,13.45
					c9.57,4.99,29.16,10.23,29.16,10.23s-8.02-2.4-18.8-3.13c-6.01-0.41-18.4-1.09-21.56-6.09C54.64,78.46,59.8,71.61,60.75,71.1z"
					/>
				
					<linearGradient id="SVGID_00000036954704230503045080000008372442033646406036_" gradientUnits="userSpaceOnUse" x1="234.0136" y1="71.7313" x2="235.2525" y2="83.2942">
					<stop  offset="4.262231e-08" style="stop-color:#4158A6"/>
					<stop  offset="1" style="stop-color:#FF8343"/>
				</linearGradient>
				<path style="fill:url(#SVGID_00000036954704230503045080000008372442033646406036_);" d="M253.28,71.1
					c0,0-17.01,5.13-22.19,7.84c-9.57,4.99-16.54,15.84-16.54,15.84s8.02-2.4,18.8-3.13c6.01-0.41,18.4-1.09,21.56-6.09
					C259.39,78.46,254.24,71.61,253.28,71.1z"/>
				
					<linearGradient id="SVGID_00000166655182466911179290000001134470120422276253_" gradientUnits="userSpaceOnUse" x1="235.6316" y1="100.0787" x2="235.6316" y2="72.9586">
					<stop  offset="0" style="stop-color:#B66078"/>
					<stop  offset="0.1804" style="stop-color:#B8637B;stop-opacity:0.8189"/>
					<stop  offset="0.3384" style="stop-color:#BC6E84;stop-opacity:0.6604"/>
					<stop  offset="0.4879" style="stop-color:#C58093;stop-opacity:0.5103"/>
					<stop  offset="0.6323" style="stop-color:#D099A9;stop-opacity:0.3655"/>
					<stop  offset="0.7729" style="stop-color:#DFBAC4;stop-opacity:0.2243"/>
					<stop  offset="0.9089" style="stop-color:#F1E1E6;stop-opacity:0.0878"/>
					<stop  offset="0.9964" style="stop-color:#FFFFFF;stop-opacity:0"/>
				</linearGradient>
				<path style="fill:url(#SVGID_00000166655182466911179290000001134470120422276253_);" d="M253.28,71.1c0,0-4.4,10.75-9.58,13.45
					c-9.57,4.99-29.16,10.23-29.16,10.23s8.02-2.4,18.8-3.13c6.01-0.41,18.4-1.09,21.56-6.09C259.39,78.46,254.24,71.61,253.28,71.1
					z"/>
			</g>
			
				<linearGradient id="SVGID_00000001636896384987177290000007386863110069166000_" gradientUnits="userSpaceOnUse" x1="260.8003" y1="57.1541" x2="272.4689" y2="32.9193">
				<stop  offset="0" style="stop-color:#412083"/>
				<stop  offset="0.9964" style="stop-color:#FFFFFF;stop-opacity:0"/>
			</linearGradient>
			<path style="fill:url(#SVGID_00000001636896384987177290000007386863110069166000_);" d="M269.35,50.57
				c-3.67,0.55-11.91,1.47-18.47,2.15c6.61-1.45,13.73-6.98,17.49-12.91c3.53,1.03,7.39,2.52,8.87,4.53
				C279.53,47.45,275.95,49.58,269.35,50.57z"/>
		</g>
		<g>
			<g>
				<path class="st9" d="M49.3,124.74l-4.46,3.37l7.78,10.77l7.03,4.31H36.22l6.46-3.78l-0.85-1.27H31.12l-0.83,1.27l5.62,3.78
					H18.53l5.48-4.31l7.66-10.77l-4.36-3.37H49.3z M36.22,130.09l-3.28,5h6.79L36.22,130.09z"/>
				<path class="st9" d="M100.35,124.74l-6.83,4.3v7.89c0,2.44-1.09,4.25-3.26,5.43c-2.18,1.18-5.52,1.76-10.02,1.76
					c-4.44,0-8.06-0.67-10.86-2c-2.8-1.33-4.2-3.06-4.2-5.19v-7.89l-6.83-4.3h22.64l-6.2,4.3v7.03c0,1.51,0.53,2.61,1.58,3.3
					s2.74,1.03,5.06,1.03c2.39,0,4.13-0.34,5.21-1.03c1.09-0.69,1.63-1.79,1.63-3.29v-7.03l-6.2-4.3H100.35z"/>
				<path class="st9" d="M133.03,124.74l0.63,8.92l-7.13-5.65h-4.35v10.87l6.83,4.31h-23.26l6.83-4.31v-10.87h-4.35l-7.13,5.65
					l0.63-8.92H133.03z"/>
				<path class="st9" d="M154.1,124.12c4.71,0,8.79,1.04,12.26,3.11c3.47,2.07,5.2,4.51,5.2,7.31c0,2.6-1.75,4.85-5.24,6.74
					c-3.49,1.89-7.64,2.83-12.45,2.83c-4.72,0-8.86-0.96-12.43-2.87c-3.57-1.91-5.36-4.13-5.36-6.66c0-2.86,1.77-5.31,5.32-7.37
					C144.96,125.14,149.19,124.12,154.1,124.12z M153.83,127.3c-1.94,0-3.51,0.62-4.74,1.87c-1.22,1.25-1.83,2.86-1.83,4.83
					c0,1.96,0.6,3.54,1.8,4.72s2.79,1.78,4.77,1.78c1.99,0,3.58-0.59,4.78-1.77c1.19-1.18,1.79-2.76,1.79-4.73
					c0-1.96-0.61-3.57-1.84-4.82C157.33,127.93,155.76,127.3,153.83,127.3z"/>
				<path class="st9" d="M183.55,124.74h22.54l3.41-0.01l4.36,0.28c2.19,0.27,3.97,0.87,5.33,1.79c1.36,0.92,2.04,1.99,2.04,3.21
					c0,2.34-2.69,3.82-8.08,4.45c1.83,0.45,3.23,1.1,4.2,1.94c0.98,0.84,1.91,2.21,2.79,4.12l4.51,2.68h-13.19
					c-1.13-2.68-2.14-4.64-3.04-5.89c-0.56-0.79-1.87-1.19-3.91-1.19h-4.53v2.8l6.83,4.28h-23.26l6.83-4.28v-9.85L183.55,124.74z
					 M199.99,132.45h6.09l1.89-0.03c2.05,0,3.08-0.67,3.08-2.01c0-0.87-0.34-1.46-1.01-1.76c-0.67-0.3-1.98-0.45-3.94-0.45h-6.12
					V132.45z"/>
				<path class="st9" d="M249.68,137.43h-14.79c0,2.38,2.18,3.57,6.53,3.57c4.13,0,6.84-0.77,8.14-2.32
					c0.16,0.37,0.25,0.67,0.25,0.91c0,1.31-0.94,2.35-2.81,3.14c-1.88,0.79-4.36,1.18-7.46,1.18c-3.87,0-7-0.65-9.38-1.95
					c-2.38-1.3-3.58-3-3.58-5.11c0-2.05,1.16-3.78,3.49-5.2c2.33-1.42,5.16-2.14,8.5-2.14c3.03,0,5.52,0.7,7.49,2.1
					C248.01,133.01,249.22,134.95,249.68,137.43z M242.97,135.12c0-2.04-1.31-3.07-3.93-3.07c-1.15,0-2.12,0.29-2.9,0.88
					c-0.78,0.59-1.16,1.32-1.16,2.19H242.97z"/>
				<path class="st9" d="M251.45,130.26l12.72-0.31v3.55c1-1.48,2.04-2.49,3.11-3.03c1.08-0.55,2.55-0.82,4.42-0.82
					c4.99,0,7.48,1.63,7.48,4.88v5.27l5.27,3.38h-16.29l3.27-2.77v-4.45c0-1.81-1.01-2.72-3.03-2.72c-1.17,0-2.12,0.36-2.85,1.08
					c-0.73,0.72-1.09,1.66-1.09,2.82v3.26l3.26,2.77h-16.29l5.27-3.38v-6.15L251.45,130.26z"/>
				<path class="st9" d="M295.61,124.43v5.53h5.44l-1.91,2.68h-3.53v5.6c0,1.6,0.53,2.41,1.58,2.41c1.62,0,2.43-0.81,2.43-2.43
					c0-0.45-0.09-0.95-0.26-1.49c1.66,0.27,2.49,1.2,2.49,2.8c0,2.87-2.33,4.31-7,4.31c-1.93,0-3.57-0.39-4.94-1.18
					c-1.37-0.78-2.05-1.73-2.05-2.82v-7.19h-4.2v-1.2c2.18-0.4,4.38-1.28,6.6-2.65c2.22-1.37,3.79-2.82,4.73-4.35H295.61z"/>
			</g>
		</g>
	</g>
</g>
</svg>
